<svg xmlns="http://www.w3.org/2000/svg" viewBox="0 0 224.11 23.39"><defs><style>.cls-1{fill:#fff;}</style></defs><title>Asset 3</title><g id="Layer_2" data-name="Layer 2"><g id="Layer_1-2" data-name="Layer 1"><path class="cls-1" d="M.63,6.85,0,5.73.17,5.4a6.63,6.63,0,0,1,.38-.71,6.85,6.85,0,0,1,.63-.91,9.54,9.54,0,0,1,.88-1,7,7,0,0,1,1.15-.88,6.57,6.57,0,0,1,1.45-.64,6.11,6.11,0,0,1,1.77-.24c.3,0,.62,0,1,.05a7,7,0,0,1,1,.2l1.14.36,1.28.44,1.51.57q.8.31,1.65.69c.56.25,1.13.52,1.69.82l-2.56,2-1.05-.56A12,12,0,0,0,10.9,5c-.45-.19-.92-.36-1.42-.52s-1-.29-1.53-.4a13,13,0,0,0-1.5-.25,3,3,0,0,0-1,.19,5.17,5.17,0,0,0-.91.46,5.39,5.39,0,0,0-.71.58,5.44,5.44,0,0,0-.49.54L3,5.94l.51.91H4.89V8.67H4V19.89h-3V8.67H.15V6.85Z"/><path class="cls-1" d="M18.77,8.67V19.91h-3V11.13A3.66,3.66,0,0,0,15,9.84a1.79,1.79,0,0,0-1.35-.47,2,2,0,0,0-.88.17,1.36,1.36,0,0,0-.52.45,1.47,1.47,0,0,0-.24.56,3,3,0,0,0-.06.56c0,.35,0,.52.06.52a1.23,1.23,0,0,1,.5-.35,1.63,1.63,0,0,1,.59-.11,2.17,2.17,0,0,1,2.23,2.35,2.54,2.54,0,0,1-.16.89,2.14,2.14,0,0,1-.49.78,2.58,2.58,0,0,1-.88.57,3.44,3.44,0,0,1-1.3.22,3.07,3.07,0,0,1-1.4-.3,2.55,2.55,0,0,1-1-1,2.7,2.7,0,0,1-1,1,3,3,0,0,1-1.38.3,3.67,3.67,0,0,1-1.31-.21,2.42,2.42,0,0,1-.89-.56,2,2,0,0,1-.5-.78,2.61,2.61,0,0,1-.16-.91,2.2,2.2,0,0,1,.67-1.77,2.4,2.4,0,0,1,1.64-.58,1.33,1.33,0,0,1,1,.46l.06-.29c0-.08,0-.19,0-.3a2.42,2.42,0,0,0,0-.39A3.09,3.09,0,0,0,8.2,10a1.78,1.78,0,0,0-.26-.63,1.58,1.58,0,0,0-.54-.48,2.2,2.2,0,0,0-.89-.21H4.26V6.85l2.25,0c1.78,0,3,.59,3.65,1.73l.28-.36a2.85,2.85,0,0,1,1.34-1,6.46,6.46,0,0,1,2-.34,3.52,3.52,0,0,1,2,.67V6.85h4V8.67Z"/><path class="cls-1" d="M28.85,22.68a3.36,3.36,0,0,0-.88-.33,5.29,5.29,0,0,0-1.09-.11A7.07,7.07,0,0,0,24,23a3.76,3.76,0,0,1-1.55.36A2.44,2.44,0,0,1,21,22.93a3.63,3.63,0,0,1-1-1.13,5.78,5.78,0,0,1-.63-1.65,8.92,8.92,0,0,1-.21-2l2.48.42v.21a2.77,2.77,0,0,0,.06.53,2.39,2.39,0,0,0,.22.58,1.85,1.85,0,0,0,.41.47,1,1,0,0,0,.61.2,3,3,0,0,0,1.16-.36,6.59,6.59,0,0,1,2.73-.71,5,5,0,0,1,2,.38l0-.23a4.37,4.37,0,0,0-1.15-1,5.71,5.71,0,0,0-1.4-.64,7.61,7.61,0,0,0-1.49-.32c-.5-.05-1-.08-1.42-.08l-.87,0a7,7,0,0,0-.71.06h-.06a.06.06,0,0,1-.05,0l-.79.11L19.61,15.5l2.9-2.79h0s0,0,0,0l-.21-.06a2.67,2.67,0,0,1-.62-.26,2.82,2.82,0,0,1-.71-.57,3.34,3.34,0,0,1-.57-.93,3.57,3.57,0,0,1-.24-1.39,6,6,0,0,1,.06-.8H18.86V6.85H33V8.67H31.88v14.7h-3v-.69Zm0-6.36V8.67H23.42a1.77,1.77,0,0,0,0,.2c0,.07,0,.13,0,.2a1.53,1.53,0,0,0,.32,1,1.27,1.27,0,0,0,1.76.05,2.2,2.2,0,0,0,.46-.55L26,9.49l0-.06,1.93,1.89-3.8,3.78.82,0a8.8,8.8,0,0,1,.9.1,9.35,9.35,0,0,1,2.07.55A5,5,0,0,1,28.88,16.32Z"/><path class="cls-1" d="M44.21,6.62a.63.63,0,0,1,0,.23h.09V8.67H32.19V6.85h9.18a.92.92,0,0,0,0-.19V6.45a1.25,1.25,0,0,0-.4-1,1.57,1.57,0,0,0-1.13-.38,4.79,4.79,0,0,0-1.72.4,9.26,9.26,0,0,1-3.43.76,10.43,10.43,0,0,1-1.35-.08,7.12,7.12,0,0,1-1-.17l-.5-2.82a10.48,10.48,0,0,0,1.5.33,10.43,10.43,0,0,0,1.31.09,8,8,0,0,0,1.45-.12q.66-.14,1.26-.3l.8-.17c.45-.09.84-.16,1.18-.2s.63,0,.88,0a4.75,4.75,0,0,1,2,.36,3.14,3.14,0,0,1,1.2.89,3.21,3.21,0,0,1,.58,1.17,5,5,0,0,1,.16,1.15ZM43,20.85,33,18.08l-.69-2.67h0l.1,0,.34.07.63.11.79.15.81.12a5.87,5.87,0,0,0,.71,0h.22l.2,0h.29a.47.47,0,0,0,.17,0l0,0a7.73,7.73,0,0,0,1.15-.15,5.82,5.82,0,0,0,1.35-.46,3.4,3.4,0,0,0,1.13-.86A2,2,0,0,0,40.7,13a.92.92,0,0,0-.23-.58A1.54,1.54,0,0,0,40,12a2.14,2.14,0,0,0-.65-.16,5.43,5.43,0,0,0-.67,0h-.53l-.29,0a1.23,1.23,0,0,1,.55,1,2,2,0,0,1-.16.72,2.57,2.57,0,0,1-.46.7,2.44,2.44,0,0,1-.75.54A2.37,2.37,0,0,1,36,15a3.4,3.4,0,0,1-1-.17,2.71,2.71,0,0,1-.92-.52,2.6,2.6,0,0,1-.66-.86,2.65,2.65,0,0,1-.25-1.2,2.44,2.44,0,0,1,.41-1.42,3.43,3.43,0,0,1,1.09-1,5.06,5.06,0,0,1,1.59-.65A8,8,0,0,1,38.14,9a7.81,7.81,0,0,1,2.06.26A5.26,5.26,0,0,1,42,10a4,4,0,0,1,1.72,3.42A3.54,3.54,0,0,1,43.39,15a4,4,0,0,1-.84,1.18,5.54,5.54,0,0,1-1.18.85,7.05,7.05,0,0,1-1.32.54l-.21.06,4.15,1Z"/><path class="cls-1" d="M60.21,17.87l-.32.38A4.57,4.57,0,0,1,58,19.47a8.54,8.54,0,0,1-5.91-.14,5.84,5.84,0,0,1-2-1.45,5.17,5.17,0,0,1-1-1.76,7.53,7.53,0,0,1-.37-1.55L48.68,14V10h3v4c0,.17.12.44.19.8a3.42,3.42,0,0,0,.45,1.11,3.09,3.09,0,0,0,1,1,3.55,3.55,0,0,0,1.92.43A4.29,4.29,0,0,0,57,17a2.09,2.09,0,0,0,.84-.63,1.13,1.13,0,0,0,.24-.62l0-.28a.14.14,0,0,0,0-.1v0a1.64,1.64,0,0,1-1.36.61,3.31,3.31,0,0,1-.94-.16,2.76,2.76,0,0,1-.9-.5,2.69,2.69,0,0,1-.67-.9,2.9,2.9,0,0,1-.26-1.3,3.34,3.34,0,0,1,.19-1.12,2.51,2.51,0,0,1,.62-1,3.12,3.12,0,0,1,1.1-.71,4.19,4.19,0,0,1,1.64-.28,3.6,3.6,0,0,1,1.59.35,3.66,3.66,0,0,1,1.22,1,4.25,4.25,0,0,1,.77,1.48,6.48,6.48,0,0,1,.26,1.86,2.36,2.36,0,0,1,0,.25,2.09,2.09,0,0,0,0,.24l1.32.94V8.67H47.77V6.85H71.06V8.67h-.92V19.91H67.22V8.67H65.54V19.91H62.62v-.34Z"/><path class="cls-1" d="M79.55,17.85,76.92,16a6.69,6.69,0,0,1-.8,1.17,8.38,8.38,0,0,1-.88.9,5.89,5.89,0,0,1-.86.65c-.28.18-.52.31-.71.41l-.53.25-2.58-2.14.1-.06c.62-.37,1.18-.72,1.68-1.07A6.87,6.87,0,0,0,73.63,15a4.59,4.59,0,0,0,.8-1.35,4.9,4.9,0,0,0,.29-1.75,3.22,3.22,0,0,0-.41-1.66,10.72,10.72,0,0,0-1.15-1.54H70.43V6.85h13V8.67h-.94V19.91h-3ZM77.7,11q0,.36.06.72c0,.23,0,.46,0,.69v.34a1.33,1.33,0,0,1,0,.31l1.79,1.24V8.67H76.82l.06.07A5.7,5.7,0,0,1,77.7,11Z"/><path class="cls-1" d="M84.63,8.67H82.78V6.85h5.88V8.67h-.27a8.23,8.23,0,0,0-1.77,5.13,9.44,9.44,0,0,0,.22,2,6,6,0,0,0,2.25,3.48,7.56,7.56,0,0,0,2.38,1.18l-1.17,3-.53-.21a.05.05,0,0,0,0,0l-.12-.06a7,7,0,0,1-1-.54,9.44,9.44,0,0,1-1.31-.93,12.27,12.27,0,0,1-1.35-1.35,10.91,10.91,0,0,1-1.22-1.8,10.34,10.34,0,0,1-.88-2.25,10.06,10.06,0,0,1-.34-2.71,11,11,0,0,1,1-4.51Z"/><path class="cls-1" d="M100.36,22.26l-9.64-2.75,0-2.39.78-.15c.43-.09,1-.2,1.55-.35s1.24-.32,1.91-.52a16.23,16.23,0,0,0,1.87-.7,6.23,6.23,0,0,0,1.43-.87,1.35,1.35,0,0,0,.57-1c0-.24-.15-.44-.46-.61a3.77,3.77,0,0,0-1.12-.37l-.34-.07-.06.23a3.93,3.93,0,0,1-.27.82,3,3,0,0,1-.61.84,5.44,5.44,0,0,1-1.15.84A10.25,10.25,0,0,1,93,16a2.63,2.63,0,0,1-.57.14l-.51,0a2.78,2.78,0,0,1-1.06-.2A3,3,0,0,1,90,15.5a2.53,2.53,0,0,1-.51-.54.79.79,0,0,1-.18-.39V8.67H88V6.85h14.11V8.67H91.85V8.8l0,0,.26.34a2.51,2.51,0,0,0,.64.36c.23.09.46.18.7.25l1.2.31c.23,0,.53-.08.89-.11a10,10,0,0,1,2.76.08,5.57,5.57,0,0,1,1.59.5,3.4,3.4,0,0,1,1.2,1,2.77,2.77,0,0,1,.49,1.71,2.81,2.81,0,0,1-.54,1.68,6.35,6.35,0,0,1-1.29,1.35,8.45,8.45,0,0,1-1.58,1c-.54.27-1,.47-1.36.61l-.06,0-.07,0-.56.21,5.48,1.49Zm-8.51-8.74.21,0a.88.88,0,0,0,.3,0,3.36,3.36,0,0,0,.51-.05,2,2,0,0,0,.54-.15,1.54,1.54,0,0,0,.44-.33,1.1,1.1,0,0,0,.25-.52A10.17,10.17,0,0,1,93,12.25a4.77,4.77,0,0,1-.66-.26,1.53,1.53,0,0,1-.35-.22.72.72,0,0,1-.13-.14l0,0Z"/><path class="cls-1" d="M118.06,17.89l-.31.36a4.85,4.85,0,0,1-1.83,1.22,7.29,7.29,0,0,1-2.73.46,7.4,7.4,0,0,1-3.2-.6,5.93,5.93,0,0,1-2-1.45,5.17,5.17,0,0,1-1-1.76,8,8,0,0,1-.35-1.55,2.09,2.09,0,0,1-.05-.38.69.69,0,0,0,0-.23V10h3V13.9a6.41,6.41,0,0,1,.19.8,3.42,3.42,0,0,0,.45,1.11,3.19,3.19,0,0,0,1,1,3.55,3.55,0,0,0,1.92.43,4.79,4.79,0,0,0,1.51-.19,2.3,2.3,0,0,0,.86-.45,1.4,1.4,0,0,0,.39-.55,1.54,1.54,0,0,0,.09-.45l0-.29a1.63,1.63,0,0,1-1.36.59,3.33,3.33,0,0,1-1-.16,2.53,2.53,0,0,1-.89-.5,2.66,2.66,0,0,1-.66-.9,2.9,2.9,0,0,1-.27-1.3,3.35,3.35,0,0,1,.2-1.12,2.8,2.8,0,0,1,.64-1,3.19,3.19,0,0,1,1.13-.7,4.53,4.53,0,0,1,1.67-.27,3.36,3.36,0,0,1,1.57.36,3.48,3.48,0,0,1,1.17,1,4.79,4.79,0,0,1,.75,1.48,6.28,6.28,0,0,1,.26,1.81c0,.08,0,.15,0,.24a2,2,0,0,0,0,.25l1.29.9V8.67H105.57V6.85h18.75V8.67h-.9V19.91h-3v-.36Z"/><path class="cls-1" d="M137.84,8.67V19.91h-3V13l-7.18,3.86L126,14.59l2-1a5.82,5.82,0,0,0-.92-1.52,3.87,3.87,0,0,0-.9-.81L125.7,11l-1.89-2.35a13.34,13.34,0,0,1,6-1.78,8,8,0,0,1,3.12.53,6,6,0,0,1,2,1.24V6.85h3.89V8.67Zm-7.31,3.68,3.18-1.56a5,5,0,0,0-1.64-.8,6.82,6.82,0,0,0-1.73-.25,8.38,8.38,0,0,0-1.44.13,3.71,3.71,0,0,1,.93,1.11A11.84,11.84,0,0,1,130.53,12.35Z"/><path class="cls-1" d="M138.7.57,141.16,0a1.7,1.7,0,0,0,0,.22,1.7,1.7,0,0,1,0,.22,5.22,5.22,0,0,1-.42,2.19,5.21,5.21,0,0,1-1,1.5,5.11,5.11,0,0,1-1.23.93,7.11,7.11,0,0,1-1,.48l-.4.15-.05,0-2.77.63-.59-2.6,2.71-.63.3-.11a3.25,3.25,0,0,0,.55-.26,2.77,2.77,0,0,0,.63-.48,3.31,3.31,0,0,0,.54-.72A2.51,2.51,0,0,0,138.7.57Z"/><path class="cls-1" d="M150.86,8.67V19.91h-2.92v-6.7l0-.21a3.62,3.62,0,0,0-1.09-2.06l-.3-.21a4.49,4.49,0,0,0-1.24-.67,3.35,3.35,0,0,0-1.06-.19,2,2,0,0,0-.76.13,2.36,2.36,0,0,0-.63.33A2.79,2.79,0,0,1,144.54,13a2.52,2.52,0,0,1-.23,1.06,2.8,2.8,0,0,1-1.52,1.43,3,3,0,0,1-1.06.2,2.48,2.48,0,0,1-1-.19,3.05,3.05,0,0,1-.81-.5l-.06-.07a3.71,3.71,0,0,1-.9-1.2,3.64,3.64,0,0,1-.32-1.53,5.57,5.57,0,0,1,.34-1.9,5.45,5.45,0,0,1,1-1.72,5.35,5.35,0,0,1,1.62-1.26,4.76,4.76,0,0,1,2.21-.49,7.93,7.93,0,0,1,3.31.84h0a.82.82,0,0,0,.25.13,3.56,3.56,0,0,1,.57.37V6.85h3.85V8.67Z"/><path class="cls-1" d="M167.58,13.52l.25.28a3.43,3.43,0,0,1,.77,1.26,4.18,4.18,0,0,1,.24,1.38,2.88,2.88,0,0,1-.75,2,5.28,5.28,0,0,1-2.53,1.29,3.91,3.91,0,0,1-.72.13l-.73,0a8.44,8.44,0,0,1-3-.5,7,7,0,0,1-2.21-1.3,7.49,7.49,0,0,1-1.5-1.8,10.36,10.36,0,0,1-.92-2,10.13,10.13,0,0,1-.46-1.93,10.84,10.84,0,0,1-.13-1.55V10.5a2.33,2.33,0,0,1,0-.32v-.1a3.84,3.84,0,0,1,.06-.71v0h2.75v.36a11,11,0,0,0,.62,4.05,6.22,6.22,0,0,0,1.53,2.34,4.42,4.42,0,0,0,1.88,1.06,6.91,6.91,0,0,0,1.71.26h.23l.23,0h0a1.19,1.19,0,0,1,.25,0,.28.28,0,0,0,.15,0h.06a1.39,1.39,0,0,0,.49-.29,1.66,1.66,0,0,0,.29-.42,2.85,2.85,0,0,0,.16-.43,3.24,3.24,0,0,0,.07-.39v-.21a1,1,0,0,1-.59.47,2.62,2.62,0,0,1-1,.18,2.67,2.67,0,0,1-.73-.1,1.93,1.93,0,0,1-.67-.34,1.8,1.8,0,0,1-.7-1.49,1.62,1.62,0,0,1,.46-1.09,2.79,2.79,0,0,1,1.64-.74l.12,0a1.78,1.78,0,0,0,.78-.68,2.5,2.5,0,0,0,.33-1.4.79.79,0,0,0-.11-.45,1,1,0,0,0-.27-.28,1.15,1.15,0,0,0-.32-.15l-.24-.06H165a1.13,1.13,0,0,1,.51,1,1.8,1.8,0,0,1-.15.7,2,2,0,0,1-.45.65,2.2,2.2,0,0,1-.79.48,3.08,3.08,0,0,1-1.15.19,3.41,3.41,0,0,1-.89-.12,2.4,2.4,0,0,1-.78-.4,2.17,2.17,0,0,1-.57-.72,2.32,2.32,0,0,1-.22-1.07,3,3,0,0,1,.3-1.38,3.16,3.16,0,0,1,.85-1,3.86,3.86,0,0,1,1.3-.64,5.89,5.89,0,0,1,3.19,0,3.91,3.91,0,0,1,1.37.68,3.49,3.49,0,0,1,1,1.17,3.71,3.71,0,0,1,.37,1.68,3.9,3.9,0,0,1-.33,1.66,3.2,3.2,0,0,1-.81,1.14Z"/><path class="cls-1" d="M170.56,8.67h-1.85V6.85h5.88V8.67h-.27a8.23,8.23,0,0,0-1.77,5.13,8.83,8.83,0,0,0,.23,2,5.94,5.94,0,0,0,.76,1.87A6.37,6.37,0,0,0,175,19.25a7.51,7.51,0,0,0,2.39,1.18l-1.18,3-.52-.21-.05,0-.12-.06a7,7,0,0,1-1-.54,8.83,8.83,0,0,1-1.3-.93,11.51,11.51,0,0,1-1.36-1.35,10.91,10.91,0,0,1-1.22-1.8,10.34,10.34,0,0,1-.88-2.25,10.47,10.47,0,0,1-.34-2.71,11,11,0,0,1,1-4.51Z"/><path class="cls-1" d="M181.77,18.16a2.08,2.08,0,0,0-.6-1.44,2,2,0,0,0-2.84,0l0,.06-.85-.14c-.26,0-.5-.06-.73-.07l-.84,0-1.43-2.92a8.81,8.81,0,0,0,1.95-.35,3.89,3.89,0,0,0,1.1-.53,1.47,1.47,0,0,0,.49-.58,1.25,1.25,0,0,0,.12-.45v-.19a2.49,2.49,0,0,0-.44-1,4.5,4.5,0,0,0-.77-.8,5.06,5.06,0,0,0-.88-.57,5.71,5.71,0,0,0-.79-.36l-.36-.13H174V6.85h13.09V8.67h-1V19.91h-2.75v-.19A5.45,5.45,0,0,0,181.77,18.16Zm-.75,0a1.24,1.24,0,0,1-.37.89,1.26,1.26,0,0,1-1.78,0,1.2,1.2,0,0,1-.37-.89,1.27,1.27,0,0,1,2.15-.9A1.26,1.26,0,0,1,181,18.19Zm2.33-9.52h-3.68a4.6,4.6,0,0,1,.84.93,5.56,5.56,0,0,1,.55.92l0,.15,0,0,.07.15c0,.11.06.24.09.39a2.38,2.38,0,0,1,.05.49A2.66,2.66,0,0,1,181,13a3.35,3.35,0,0,1-1.42,1.23l.75.16.67.19a7.39,7.39,0,0,1,.79.33,7.32,7.32,0,0,1,.82.45,4.35,4.35,0,0,1,.75.57Z"/><path class="cls-1" d="M195.76,8.67h-9.35V6.85h13.26V8.67h-.95V19.91h-3v-.7a13.42,13.42,0,0,0-1.73-1,15.76,15.76,0,0,0-1.83-.76c-.61-.21-1.19-.38-1.75-.52s-1.07-.25-1.52-.32l-1.57-.25V12l8.4-2.35Zm0,6.89V12.62L191,14a8.81,8.81,0,0,1,2.46.47,9.88,9.88,0,0,1,1.87.86Z"/><path class="cls-1" d="M207.31,18.31a1.57,1.57,0,0,1-1.58,1.6,1.58,1.58,0,0,1-1.13-.46,1.55,1.55,0,0,1-.46-1.14,1.51,1.51,0,0,1,.46-1.11,1.54,1.54,0,0,1,1.13-.46,1.57,1.57,0,0,1,1.58,1.57Z"/><path class="cls-1" d="M215.71,18.31a1.59,1.59,0,0,1-.46,1.14,1.56,1.56,0,0,1-1.12.46,1.58,1.58,0,0,1-1.13-.46,1.55,1.55,0,0,1-.46-1.14A1.51,1.51,0,0,1,213,17.2a1.54,1.54,0,0,1,1.13-.46,1.52,1.52,0,0,1,1.12.46A1.55,1.55,0,0,1,215.71,18.31Z"/><path class="cls-1" d="M224.11,18.31a1.57,1.57,0,0,1-1.58,1.6,1.58,1.58,0,0,1-1.13-.46,1.55,1.55,0,0,1-.46-1.14,1.51,1.51,0,0,1,.46-1.11,1.54,1.54,0,0,1,1.13-.46,1.57,1.57,0,0,1,1.58,1.57Z"/></g></g></svg>